<?xml version="1.0" encoding="UTF-8" standalone="no"?><!DOCTYPE svg PUBLIC "-//W3C//DTD SVG 1.1//EN" "http://www.w3.org/Graphics/SVG/1.1/DTD/svg11.dtd"><svg width="100%" height="100%" viewBox="0 0 120 120" version="1.1" xmlns="http://www.w3.org/2000/svg" xmlns:xlink="http://www.w3.org/1999/xlink" xml:space="preserve" style="fill-rule:evenodd;clip-rule:evenodd;stroke-linejoin:round;stroke-miterlimit:1.41421;"><path d="M60,0c-33.115,0 -60,26.885 -60,60c0,33.115 26.885,60 60,60c33.115,0 60,-26.885 60,-60c0,-33.115 -26.885,-60 -60,-60Z" style="fill:none;"/><g><path d="M81.355,94.202l-24.932,0c-11.666,0 -21.138,-9.472 -21.138,-21.137c0,-11.666 9.472,-21.137 21.138,-21.138l24.932,0l0,16.146l-24.932,0c-2.756,0 -4.992,2.236 -4.992,4.992c0,2.755 2.236,4.991 4.992,4.992l24.932,0l0,16.145Z" style="fill:#fff;"/><path d="M81.355,41.958l-24.932,0l0,-0.015c-2.756,0.001 -4.992,2.237 -4.992,4.992c0,2.756 2.236,4.992 4.992,4.992l24.932,0l0,16.146l-24.932,0c-11.666,0 -21.138,-9.472 -21.138,-21.138c0,-11.666 9.472,-21.137 21.138,-21.137c0.261,0 0.521,0.005 0.78,0.014l24.152,0l0,16.146Z" style="fill:#fff;"/><g><path d="M81.355,51.927l0,16.146l-24.932,0c-6.734,0 -12.737,-3.156 -16.605,-8.073c3.866,-4.914 9.865,-8.07 16.605,-8.073l24.932,0Z" style="fill:#fff;fill-opacity:0.498039;"/></g></g></svg>